# xmcd CD database file
# Generated: szo nov 2 05:44:27 2002 by KSCD
# 
# Track frame offsets:
#       150
#       17368
#       34586
#       51729
#       72847
#       102665
#       121496
#       141602
#       157808
#       184476
#       210394
#
# Disc length: 3133 seconds
#
# Revision: 3
# Processed by: cddbd v1.4PL0 Copyright (c) Steve Scherf et al.
# Submitted via: Kscd 1.3.3
#
DISCID=a10c3b0b
DTITLE=Török Ádám és a MINI - Misztikus utazó
DYEAR=1900
DGENRE=
TTITLE0=Mániákus nosztalgia
TTITLE1=Árny a sarkon túl
TTITLE2=Tabán 2000
TTITLE3=Blueskrém
TTITLE4=Aphrodite 2
TTITLE5=Lélekpiac
TTITLE6=Apák és fiúk
TTITLE7=Ha(ll)j csodát
TTITLE8=Egy nomád vagyok én
TTITLE9=Misztikus utazó
TTITLE10=Álomkocsma XXI. század
EXTD=
EXTT0=
EXTT1=
EXTT2=
EXTT3=
EXTT4=
EXTT5=
EXTT6=
EXTT7=
EXTT8=
EXTT9=
EXTT10=
PLAYORDER=
